<?xml version="1.0" encoding="UTF-8" standalone="no"?> <svg xmlns="http://www.w3.org/2000/svg" viewBox="0 0 32 32"><defs><style>.cls-1{fill:#fd3730;}.cls-2{fill:#eaeff0;}.cls-3{fill:#8fa5a5;}</style></defs><title>Start Up</title><g id="Start_Up" data-name="Start Up"><path class="cls-1" d="M17.439,26.227a1,1,0,0,1-.931-1.365,4.787,4.787,0,0,0,.067-3.246l-6.192-6.192a4.756,4.756,0,0,0-1.533-.252,4.68,4.68,0,0,0-1.713.32,1,1,0,0,1-1.295-1.3,6.772,6.772,0,0,1,1.5-2.3,6.713,6.713,0,0,1,5.54-1.929,1,1,0,0,1,.589.286l8.281,8.281a1,1,0,0,1,.286.589A6.695,6.695,0,0,1,17.8,26.158.99.99,0,0,1,17.439,26.227Z"/><path class="cls-2" d="M12.614,23.816a2.971,2.971,0,0,1-2.117-.877L9.06,21.5a3,3,0,0,1-.669-3.216c.1-.265.219-.572.347-.914,1.015-2.7,2.714-7.218,5.53-10.034A13.8,13.8,0,0,1,24.178,3a11.628,11.628,0,0,1,2.225.207A3.009,3.009,0,0,1,28.793,5.6a13.558,13.558,0,0,1-4.132,12.134c-2.815,2.816-7.332,4.513-10.031,5.528-.342.129-.651.245-.917.349A3,3,0,0,1,12.614,23.816Z"/><path class="cls-1" d="M28.793,5.6A3.009,3.009,0,0,0,26.4,3.207,11.628,11.628,0,0,0,24.178,3a13.163,13.163,0,0,0-1.575.1,10.6,10.6,0,0,0,2.458,3.842,10.584,10.584,0,0,0,3.826,2.453A12.4,12.4,0,0,0,28.793,5.6Z"/><path class="cls-3" d="M20,8a4,4,0,1,0,4,4A4,4,0,0,0,20,8Zm0,6a2,2,0,1,1,2-2A2,2,0,0,1,20,14Z"/><path class="cls-3" d="M8.707,23.293a1,1,0,0,0-1.414,0L4.1,26.482A1,1,0,1,0,5.518,27.9l3.189-3.189A1,1,0,0,0,8.707,23.293Z"/><path class="cls-3" d="M4.707,23.843l2.068-2.068a1,1,0,1,0-1.414-1.414L3.293,22.429a1,1,0,1,0,1.414,1.414Z"/><path class="cls-3" d="M10.225,25.225,8.157,27.293a1,1,0,1,0,1.414,1.414l2.068-2.068a1,1,0,0,0-1.414-1.414Z"/></g></svg>